<svg width="168" height="168" viewBox="0 0 168 168" fill="none" xmlns="http://www.w3.org/2000/svg">
<circle cx="84" cy="84" r="76" fill="#03A8CB" stroke="white" stroke-width="16"/>
<path fill-rule="evenodd" clip-rule="evenodd" d="M69 54C68.7348 54 68.4804 54.1054 68.2929 54.2929C68.1054 54.4804 68 54.7348 68 55V76.082H61.082C59.394 76.082 58 77.466 58 79.152V106H55C54.7348 106 54.4804 106.105 54.2929 106.293C54.1054 106.48 54 106.735 54 107C54 110.85 57.08 114 60.886 114H107.114C110.92 114 114 110.85 114 107C114 106.735 113.895 106.48 113.707 106.293C113.52 106.105 113.265 106 113 106H110V79.152C110 77.466 108.606 76.082 106.918 76.082H99.992V63.3C99.9919 63.2491 99.9879 63.1983 99.98 63.148C100.004 62.9946 99.9918 62.8378 99.9446 62.6899C99.8973 62.542 99.8164 62.4072 99.708 62.296L91.722 54.296C91.6276 54.2008 91.5151 54.1255 91.3911 54.0747C91.267 54.0238 91.134 53.9984 91 54C90.9793 54.0007 90.9586 54.002 90.938 54.004C90.9081 54.0013 90.878 54 90.848 54H69ZM70 56H90.012V63C90.012 63.2652 90.1174 63.5196 90.3049 63.7071C90.4924 63.8947 90.7468 64 91.012 64H97.992V94H70V56ZM92.012 57.418L96.59 62H92.01V57.418H92.012ZM72.914 58C72.6488 58.0133 72.3997 58.1313 72.2215 58.3283C72.0434 58.5252 71.9507 58.7848 71.964 59.05C71.9773 59.3152 72.0953 59.5643 72.2922 59.7425C72.4892 59.9206 72.7488 60.0133 73.014 60H75.014C75.2792 60 75.5336 59.8947 75.7211 59.7071C75.9086 59.5196 76.014 59.2652 76.014 59C76.014 58.7348 75.9086 58.4804 75.7211 58.2929C75.5336 58.1054 75.2792 58 75.014 58H73.014C72.9807 57.9983 72.9473 57.9983 72.914 58ZM78.918 58C78.6528 58.0133 78.4037 58.1313 78.2255 58.3283C78.0474 58.5252 77.9547 58.7848 77.968 59.05C77.9813 59.3152 78.0993 59.5643 78.2962 59.7425C78.4932 59.9206 78.7528 60.0133 79.018 60H86.984C87.2492 60 87.5036 59.8947 87.6911 59.7071C87.8786 59.5196 87.984 59.2652 87.984 59C87.984 58.7348 87.8786 58.4804 87.6911 58.2929C87.5036 58.1054 87.2492 58 86.984 58H79.02C78.986 57.9983 78.952 57.9983 78.918 58V58ZM72.914 62C72.6488 62.0133 72.3997 62.1313 72.2215 62.3283C72.0434 62.5252 71.9507 62.7848 71.964 63.05C71.9773 63.3152 72.0953 63.5643 72.2922 63.7425C72.4892 63.9206 72.7488 64.0133 73.014 64H75.014C75.2792 64 75.5336 63.8947 75.7211 63.7071C75.9086 63.5196 76.014 63.2652 76.014 63C76.014 62.7348 75.9086 62.4804 75.7211 62.2929C75.5336 62.1054 75.2792 62 75.014 62H73.014C72.9807 61.9983 72.9473 61.9983 72.914 62ZM78.918 62C78.6528 62.0133 78.4037 62.1313 78.2255 62.3283C78.0474 62.5252 77.9547 62.7848 77.968 63.05C77.9813 63.3152 78.0993 63.5643 78.2962 63.7425C78.4932 63.9206 78.7528 64.0133 79.018 64H86.984C87.2492 64 87.5036 63.8947 87.6911 63.7071C87.8786 63.5196 87.984 63.2652 87.984 63C87.984 62.7348 87.8786 62.4804 87.6911 62.2929C87.5036 62.1054 87.2492 62 86.984 62H79.02C78.986 61.9983 78.952 61.9983 78.918 62ZM80.988 68.004C79.1344 68.0098 77.3585 68.7496 76.0489 70.0614C74.7393 71.3732 74.0026 73.1504 74 75.004C74 75.2692 74.1054 75.5236 74.2929 75.7111C74.4804 75.8987 74.7348 76.004 75 76.004H80.988C81.2532 76.004 81.5076 75.8987 81.6951 75.7111C81.8826 75.5236 81.988 75.2692 81.988 75.004V69.004C81.988 68.7388 81.8826 68.4844 81.6951 68.2969C81.5076 68.1094 81.2532 68.004 80.988 68.004ZM84.582 69.204C84.3168 69.204 84.0624 69.3094 83.8749 69.4969C83.6874 69.6844 83.582 69.9388 83.582 70.204V77.6H76.2C75.9348 77.6 75.6804 77.7054 75.4929 77.8929C75.3054 78.0804 75.2 78.3348 75.2 78.6C75.2 80.4577 75.7501 82.2737 76.7808 83.8192C77.8116 85.3646 79.2769 86.5703 80.992 87.284C82.7066 87.995 84.5937 88.181 86.4141 87.8186C88.2346 87.4561 89.9065 86.5615 91.218 85.248C92.5301 83.9322 93.4236 82.2576 93.7859 80.4351C94.1482 78.6126 93.9631 76.7236 93.254 75.006C92.5442 73.2896 91.3415 71.8222 89.798 70.7892C88.2545 69.7561 86.4393 69.2038 84.582 69.202V69.204ZM79.988 70.418V74.004H76.41C76.836 72.15 78.138 70.846 79.99 70.418H79.988ZM85.582 71.508C88.126 71.882 90.402 73.34 91.406 75.768C91.9663 77.1204 92.1134 78.6085 91.8286 80.0445C91.5438 81.4804 90.84 82.7998 89.806 83.836C88.7743 84.8706 87.4584 85.5751 86.0253 85.86C84.5923 86.1449 83.1069 85.9973 81.758 85.436C79.332 84.43 77.872 82.152 77.5 79.602H84.582C84.8472 79.602 85.1016 79.4967 85.2891 79.3091C85.4766 79.1216 85.582 78.8672 85.582 78.602V71.508V71.508ZM61.082 78.08H68V80H63C62.7348 80 62.4804 80.1054 62.2929 80.2929C62.1054 80.4804 62 80.7348 62 81V103C62 103.265 62.1054 103.52 62.2929 103.707C62.4804 103.895 62.7348 104 63 104H105C105.265 104 105.52 103.895 105.707 103.707C105.895 103.52 106 103.265 106 103V81C106 80.7348 105.895 80.4804 105.707 80.2929C105.52 80.1054 105.265 80 105 80H99.992V78.082H106.918C107.538 78.082 108 78.546 108 79.152V106H60V79.152C60 78.546 60.46 78.082 61.082 78.082V78.08ZM64 82H68V95C68 95.2652 68.1054 95.5196 68.2929 95.7071C68.4804 95.8947 68.7348 96 69 96H98.992C99.2572 96 99.5116 95.8947 99.6991 95.7071C99.8866 95.5196 99.992 95.2652 99.992 95V82H104V102H64V82ZM76.9 90.004C76.6348 90.0173 76.3857 90.1353 76.2075 90.3323C76.0294 90.5292 75.9367 90.7888 75.95 91.054C75.9633 91.3192 76.0813 91.5683 76.2782 91.7465C76.4752 91.9246 76.7348 92.0173 77 92.004H91C91.2652 92.004 91.5196 91.8986 91.7071 91.7111C91.8946 91.5236 92 91.2692 92 91.004C92 90.7388 91.8946 90.4844 91.7071 90.2969C91.5196 90.1094 91.2652 90.004 91 90.004H77C76.9667 90.0023 76.9333 90.0023 76.9 90.004ZM56.4 108H77.67V108.56C77.67 109.946 78.8 111.118 80.194 111.118H87.802C89.196 111.118 90.326 109.946 90.326 108.558V108H111.6C111.1 110.232 109.448 112 107.116 112H60.886C58.554 112 56.9 110.232 56.402 108H56.4ZM79.67 108H88.326V108.56C88.326 108.9 88.096 109.118 87.802 109.118H80.194C79.9 109.118 79.67 108.898 79.67 108.558V108V108Z" fill="white"/>
</svg>
