<svg width="64" height="64" viewBox="0 0 64 64" fill="none" xmlns="http://www.w3.org/2000/svg">
<g clip-path="url(#clip0_465_1650)">
<path d="M32 64C49.6731 64 64 49.6731 64 32C64 14.3269 49.6731 0 32 0C14.3269 0 0 14.3269 0 32C0 49.6731 14.3269 64 32 64Z" fill="#41E164"/>
<path d="M41.9867 14.7639V30.0479C41.9867 30.4692 42.2853 30.7639 42.6533 30.7639C43.0213 30.7639 43.32 30.4692 43.32 30.0479V14.7639H41.9867ZM19.32 20.0972V26.7372C19.2893 26.7412 19.2573 26.7412 19.2266 26.7452C16.5656 27.0686 14.0897 28.2746 12.1947 30.1706C12.1328 30.2327 12.0837 30.3065 12.0503 30.3876C12.0169 30.4687 11.9998 30.5556 12 30.6433C12.0002 30.7311 12.0177 30.8179 12.0514 30.8988C12.0851 30.9798 12.1345 31.0533 12.1967 31.1152C12.2588 31.1771 12.3326 31.2262 12.4137 31.2596C12.4948 31.293 12.5817 31.3101 12.6694 31.3099C12.7571 31.3097 12.844 31.2922 12.9249 31.2585C13.0059 31.2248 13.0794 31.1754 13.1413 31.1132C14.8249 29.4284 17.0243 28.356 19.3886 28.0672C21.7528 27.7784 24.1457 28.2899 26.1853 29.5199C28.2265 30.7484 29.7973 32.6251 30.6472 34.8506C31.4972 37.0762 31.5773 39.5222 30.8747 41.7986C30.8229 41.9678 30.8404 42.1506 30.9234 42.3069C31.0064 42.4632 31.1481 42.5801 31.3173 42.6319C31.4866 42.6837 31.6694 42.6662 31.8257 42.5832C31.982 42.5002 32.0989 42.3585 32.1507 42.1893C32.364 41.4959 32.5067 40.7973 32.5907 40.0973H42.3547C42.5227 39.6253 42.728 39.1733 43.0026 38.7639H32.672C32.676 38.3173 32.6586 37.8706 32.612 37.4306H44.2627C44.7796 37.0151 45.3623 36.6889 45.9867 36.4653V28.0972H44.6533V30.0479C44.6533 30.9746 43.9734 31.6559 43.1227 31.8972C42.9988 32.0232 42.83 32.0952 42.6533 32.0972C42.4798 32.0938 42.3144 32.023 42.192 31.8999C41.3386 31.6599 40.6533 30.9772 40.6533 30.0479V28.0972H35.232C35.0576 29.1921 34.5988 30.2221 33.9016 31.0841C33.2043 31.9461 32.293 32.6099 31.2587 33.0092C30.2432 31.0959 28.727 29.4944 26.872 28.3759C25.5954 27.6089 24.1869 27.087 22.7187 26.8372L21.8613 20.9092C21.8338 20.6803 21.7417 20.4639 21.596 20.2852C21.5478 20.2238 21.4856 20.1749 21.4146 20.1424C21.3437 20.1099 21.266 20.0949 21.188 20.0986H19.3213L19.32 20.0972ZM35.1733 22.7639L34.804 24.2372C34.8138 24.376 34.7803 24.5144 34.708 24.6332L34.1746 26.7639H40.6533V22.7639H35.1733V22.7639ZM44.6533 22.7639V26.7639H49.9867V24.7639C49.9867 23.6439 49.1067 22.7639 47.9867 22.7639H44.6533ZM35.94 24.0972H35.9867C36.1613 24.1034 36.3266 24.1778 36.4469 24.3046C36.5673 24.4314 36.6329 24.6004 36.6299 24.7752C36.6268 24.9499 36.5553 25.1165 36.4306 25.239C36.3059 25.3615 36.1381 25.4302 35.9633 25.4302C35.7886 25.4302 35.6207 25.3615 35.4961 25.239C35.3714 25.1165 35.2998 24.9499 35.2968 24.7752C35.2937 24.6004 35.3594 24.4314 35.4797 24.3046C35.6 24.1778 35.7653 24.1034 35.94 24.0972ZM38.6067 24.0972H38.6533C38.828 24.1034 38.9933 24.1778 39.1136 24.3046C39.2339 24.4314 39.2996 24.6004 39.2966 24.7752C39.2935 24.9499 39.2219 25.1165 39.0973 25.239C38.9726 25.3615 38.8048 25.4302 38.63 25.4302C38.4552 25.4302 38.2874 25.3615 38.1627 25.239C38.0381 25.1165 37.9665 24.9499 37.9634 24.7752C37.9604 24.6004 38.0261 24.4314 38.1464 24.3046C38.2667 24.1778 38.432 24.1034 38.6067 24.0972ZM46.6067 24.0972H46.6533C46.828 24.1034 46.9933 24.1778 47.1136 24.3046C47.2339 24.4314 47.2996 24.6004 47.2966 24.7752C47.2935 24.9499 47.2219 25.1165 47.0973 25.239C46.9726 25.3615 46.8048 25.4302 46.63 25.4302C46.4552 25.4302 46.2874 25.3615 46.1627 25.239C46.0381 25.1165 45.9665 24.9499 45.9634 24.7752C45.9604 24.6004 46.0261 24.4314 46.1464 24.3046C46.2667 24.1778 46.432 24.1034 46.6067 24.0972ZM47.32 28.0972V36.1626C47.5427 36.1372 47.7587 36.0972 47.9867 36.0972C48.6907 36.0972 49.3587 36.2399 49.9867 36.4639V34.7639H48.6533V33.4306H49.9867V32.0972H48.6533V30.7639H49.9867V28.0972H47.32ZM36.6533 29.4306H39.32V30.7639H36.6533V29.4306ZM20.8907 30.6759C19.6413 30.6746 21.328 31.4439 19.1346 31.8999C16.628 32.4199 18.6053 30.5453 16.3827 31.8159C14.16 33.0866 16.7787 32.3319 15.0573 34.2279C13.336 36.1212 13.836 33.4452 12.784 35.7799C11.732 38.1132 13.4093 35.9639 13.1307 38.5092C12.8507 41.0532 11.6787 38.5959 12.2 41.1026C12.7213 43.6092 12.816 40.8852 14.0853 43.1079C15.356 45.3306 12.9613 44.0292 14.856 45.7506C16.752 47.4719 15.2253 45.2146 17.56 46.2666C19.8933 47.3186 17.1947 47.6692 19.74 47.9492C22.284 48.2279 19.7227 47.2986 22.2293 46.7759C24.736 46.2559 22.7587 48.1306 24.9813 46.8599C27.204 45.5906 24.5853 46.3399 26.3067 44.4466C28.0293 42.5519 27.5293 45.2306 28.58 42.8972C29.6333 40.5626 27.9547 42.7106 28.2333 40.1639C28.5133 37.6199 29.6853 40.0799 29.164 37.5732C28.644 35.0666 28.548 37.7919 27.2786 35.5692C26.008 33.3452 28.4026 34.6466 26.508 32.9253C24.6133 31.2039 26.1387 33.4612 23.804 32.4092C21.4707 31.3586 24.1693 31.0039 21.6253 30.7252C21.3815 30.696 21.1362 30.6796 20.8907 30.6759V30.6759ZM36.6533 32.0972H39.32V33.4306H36.6533V32.0972ZM33.9867 34.7639H39.32V36.0972H33.9867V34.7639ZM20.6827 35.3372C22.8987 35.3372 24.6827 37.1199 24.6827 39.3372C24.6827 41.5532 22.8987 43.3372 20.6827 43.3372C18.4653 43.3372 16.6827 41.5532 16.6827 39.3372C16.6827 37.1199 18.4653 35.3372 20.6827 35.3372ZM20.6346 36.6706C20.5453 36.6739 20.4575 36.6951 20.3766 36.7331C20.2956 36.771 20.2231 36.8248 20.1634 36.8913C20.1036 36.9578 20.0579 37.0357 20.0289 37.1202C19.9998 37.2048 19.9881 37.2943 19.9943 37.3835C20.0006 37.4727 20.0247 37.5597 20.0653 37.6393C20.1059 37.719 20.1621 37.7897 20.2305 37.8472C20.299 37.9047 20.3783 37.9479 20.4637 37.9741C20.5492 38.0003 20.6391 38.0091 20.728 37.9999C20.9001 37.9821 21.0585 37.8981 21.1698 37.7656C21.281 37.6332 21.3365 37.4627 21.3244 37.2901C21.3123 37.1175 21.2336 36.9564 21.1049 36.8408C20.9762 36.7252 20.8075 36.6642 20.6346 36.6706ZM47.9867 37.4306C47.3734 37.4292 46.766 37.5489 46.1991 37.7829C45.6323 38.017 45.1173 38.3607 44.6837 38.7943C44.2501 39.2279 43.9064 39.7429 43.6724 40.3097C43.4383 40.8766 43.3186 41.484 43.32 42.0973C43.32 44.6826 45.4013 46.7639 47.9867 46.7639C50.572 46.7639 52.6533 44.6826 52.6533 42.0973C52.6533 39.5119 50.572 37.4306 47.9867 37.4306ZM18.992 37.6106C18.9025 37.6136 18.8146 37.6346 18.7334 37.6724C18.6523 37.7102 18.5796 37.7639 18.5196 37.8304C18.4597 37.8968 18.4137 37.9747 18.3845 38.0593C18.3553 38.1439 18.3434 38.2336 18.3496 38.3229C18.3558 38.4122 18.3799 38.4993 18.4205 38.5791C18.461 38.6589 18.5173 38.7297 18.5858 38.7873C18.6544 38.8449 18.7338 38.8881 18.8194 38.9143C18.905 38.9405 18.995 38.9492 19.084 38.9399C19.2558 38.9219 19.414 38.838 19.5251 38.7057C19.6362 38.5734 19.6917 38.4032 19.6797 38.2308C19.6678 38.0585 19.5894 37.8975 19.4611 37.7818C19.3328 37.6661 19.1646 37.6047 18.992 37.6106V37.6106ZM22.388 37.6106C22.2688 37.6098 22.1516 37.6409 22.0485 37.7006C21.9453 37.7603 21.86 37.8464 21.8013 37.9501C21.7426 38.0538 21.7126 38.1713 21.7145 38.2905C21.7164 38.4096 21.7501 38.5261 21.812 38.6279C21.8729 38.7264 21.9584 38.8073 22.0601 38.8627C22.1618 38.918 22.2761 38.946 22.3919 38.9437C22.5076 38.9415 22.6208 38.9091 22.7203 38.8498C22.8198 38.7906 22.902 38.7064 22.9591 38.6057C23.0161 38.5049 23.046 38.391 23.0456 38.2752C23.0453 38.1594 23.0148 38.0458 22.9572 37.9453C22.8995 37.8449 22.8167 37.7612 22.7169 37.7025C22.6171 37.6438 22.5038 37.6121 22.388 37.6106V37.6106ZM20.6346 38.6706C20.5453 38.6739 20.4575 38.6951 20.3766 38.7331C20.2956 38.771 20.2231 38.8248 20.1634 38.8913C20.1036 38.9578 20.0579 39.0357 20.0289 39.1202C19.9998 39.2048 19.9881 39.2943 19.9943 39.3835C20.0006 39.4727 20.0247 39.5597 20.0653 39.6393C20.1059 39.719 20.1621 39.7897 20.2305 39.8472C20.299 39.9047 20.3783 39.9479 20.4637 39.9741C20.5492 40.0003 20.6391 40.0091 20.728 39.9999C20.9001 39.9821 21.0585 39.8981 21.1698 39.7656C21.281 39.6332 21.3365 39.4627 21.3244 39.2901C21.3123 39.1175 21.2336 38.9564 21.1049 38.8408C20.9762 38.7252 20.8075 38.6642 20.6346 38.6706ZM18.9947 39.8052C18.8749 39.804 18.757 39.835 18.6532 39.8949C18.5495 39.9548 18.4638 40.0414 18.4049 40.1458C18.3461 40.2501 18.3163 40.3683 18.3187 40.488C18.3211 40.6078 18.3557 40.7247 18.4187 40.8266C18.4801 40.9243 18.5659 41.0045 18.6676 41.0591C18.7694 41.1137 18.8835 41.141 18.999 41.1383C19.1144 41.1355 19.2272 41.1028 19.3262 41.0434C19.4252 40.984 19.507 40.8999 19.5638 40.7993C19.6205 40.6987 19.6501 40.5851 19.6497 40.4696C19.6494 40.3542 19.619 40.2408 19.5616 40.1406C19.5043 40.0404 19.4219 39.9568 19.3225 39.898C19.2231 39.8392 19.1101 39.8072 18.9947 39.8052ZM22.352 39.8052C22.1752 39.799 22.0031 39.8634 21.8737 39.984C21.7443 40.1047 21.6682 40.2718 21.662 40.4486C21.6558 40.6254 21.7201 40.7974 21.8407 40.9268C21.9614 41.0562 22.1285 41.1324 22.3053 41.1386C22.3929 41.1416 22.4802 41.1274 22.5622 41.0968C22.6443 41.0661 22.7195 41.0196 22.7836 40.9598C22.8476 40.9001 22.8993 40.8283 22.9357 40.7486C22.972 40.6689 22.9923 40.5828 22.9953 40.4952C22.9984 40.4077 22.9842 40.3204 22.9535 40.2383C22.9228 40.1563 22.8763 40.0811 22.8166 40.017C22.7568 39.9529 22.6851 39.9012 22.6053 39.8649C22.5256 39.8286 22.4396 39.8083 22.352 39.8052ZM47.9867 40.0973C49.084 40.0973 49.9867 40.9999 49.9867 42.0973C49.9867 43.1946 49.084 44.0973 47.9867 44.0973C46.8907 44.0973 45.9867 43.1946 45.9867 42.0973C45.9867 40.9999 46.8907 40.0973 47.9867 40.0973ZM20.6346 40.6706C20.5453 40.6739 20.4575 40.6951 20.3766 40.7331C20.2956 40.771 20.2231 40.8248 20.1634 40.8913C20.1036 40.9578 20.0579 41.0357 20.0289 41.1202C19.9998 41.2048 19.9881 41.2943 19.9943 41.3835C20.0006 41.4727 20.0247 41.5597 20.0653 41.6393C20.1059 41.719 20.1621 41.7897 20.2305 41.8472C20.299 41.9047 20.3783 41.9479 20.4637 41.9741C20.5492 42.0003 20.6391 42.0091 20.728 41.9999C20.9001 41.9821 21.0585 41.8981 21.1698 41.7656C21.281 41.6332 21.3365 41.4627 21.3244 41.2901C21.3123 41.1175 21.2336 40.9564 21.1049 40.8408C20.9762 40.7252 20.8075 40.6642 20.6346 40.6706ZM47.9867 41.4306C47.6107 41.4306 47.32 41.7213 47.32 42.0973C47.32 42.4733 47.6107 42.7639 47.9867 42.7639C48.3627 42.7639 48.6533 42.4733 48.6533 42.0973C48.6533 41.7213 48.3627 41.4306 47.9867 41.4306Z" fill="white"/>
</g>
<defs>
<clipPath id="clip0_465_1650">
<rect width="64" height="64" fill="white"/>
</clipPath>
</defs>
</svg>
