<svg width="64" height="64" viewBox="0 0 64 64" fill="none" xmlns="http://www.w3.org/2000/svg">
<path d="M32 64C49.6731 64 64 49.6731 64 32C64 14.3269 49.6731 0 32 0C14.3269 0 0 14.3269 0 32C0 49.6731 14.3269 64 32 64Z" fill="#FAC850"/>
<g opacity="0.6" clip-path="url(#clip0_465_1633)">
<path d="M44.7948 17.8132C44.5925 17.611 44.3349 17.4733 44.0543 17.4175C43.7738 17.3617 43.4831 17.3903 43.2188 17.4998C42.9546 17.6092 42.7287 17.7945 42.5698 18.0323C42.4108 18.2701 42.326 18.5497 42.3259 18.8357V46.3148H45.2186V37.6371H48.1112C48.4948 37.6371 48.8627 37.4848 49.1339 37.2135C49.4052 36.9423 49.5576 36.5745 49.5576 36.1909C49.5576 22.7305 44.9901 18.0084 44.7948 17.8132V17.8132ZM45.2186 34.7446V24.9722C45.9229 27.2862 46.5319 30.4796 46.6461 34.7446H45.2186V34.7446ZM26.4163 23.1745V17.3894H23.5237V23.1745C23.5237 24.2404 22.9379 25.1631 22.0773 25.6664V17.3894H19.1847V25.6664C18.3241 25.1631 17.7384 24.2418 17.7384 23.1745V17.3894H14.8457V23.1745C14.8457 25.8616 16.697 28.1062 19.1847 28.7542V46.3148H22.0773V28.7542C24.5665 28.1062 26.4163 25.8616 26.4163 23.1745V23.1745Z" fill="white"/>
<path d="M32.2014 27.5132C27.4155 27.5132 23.5234 31.4051 23.5234 36.1908C23.5234 40.9765 27.4155 44.8684 32.2014 44.8684C36.9873 44.8684 40.8794 40.9765 40.8794 36.1908C40.8794 31.4051 36.9873 27.5132 32.2014 27.5132V27.5132ZM32.2014 40.5296C32.2014 40.5296 27.8624 37.6371 27.8624 35.4677C27.8624 34.8923 28.091 34.3405 28.4979 33.9337C28.9047 33.5268 29.4565 33.2983 30.0319 33.2983C30.6073 33.2983 31.1591 33.5268 31.566 33.9337C31.9728 34.3405 32.2014 34.8923 32.2014 35.4677C32.2014 34.8923 32.43 34.3405 32.8368 33.9337C33.2437 33.5268 33.7955 33.2983 34.3709 33.2983C34.9463 33.2983 35.4981 33.5268 35.905 33.9337C36.3118 34.3405 36.5404 34.8923 36.5404 35.4677C36.5404 37.6371 32.2014 40.5296 32.2014 40.5296Z" fill="white"/>
</g>
<defs>
<clipPath id="clip0_465_1633">
<rect width="34.7119" height="34.7119" fill="white" transform="translate(14.8438 14.4954)"/>
</clipPath>
</defs>
</svg>
