<svg width="168" height="162" viewBox="0 0 168 162" fill="none" xmlns="http://www.w3.org/2000/svg">
<path d="M160 81C160 121.045 126.25 154 84 154C41.7496 154 8 121.045 8 81C8 40.9549 41.7496 8 84 8C126.25 8 160 40.9549 160 81Z" fill="#734FA0" stroke="white" stroke-width="16"/>
<path d="M108 91.2857H105.333V73.2857C105.333 72.6037 105.052 71.9497 104.552 71.4675C104.052 70.9852 103.374 70.7143 102.666 70.7143H86.6663V64.0543L90.1063 67.3972C90.3542 67.6382 90.6492 67.8295 90.9741 67.96C91.2991 68.0906 91.6476 68.1578 91.9997 68.1578C92.3517 68.1578 92.7003 68.0906 93.0252 67.96C93.3502 67.8295 93.6451 67.6382 93.893 67.3972C94.1429 67.1581 94.3413 66.8737 94.4767 66.5603C94.6121 66.247 94.6818 65.9109 94.6818 65.5714C94.6818 65.232 94.6121 64.8959 94.4767 64.5825C94.3413 64.2692 94.1429 63.9848 93.893 63.7457L85.893 56.0314C85.6451 55.7904 85.3502 55.5991 85.0252 55.4686C84.7003 55.338 84.3517 55.2708 83.9997 55.2708C83.6476 55.2708 83.2991 55.338 82.9741 55.4686C82.6492 55.5991 82.3542 55.7904 82.1063 56.0314L74.1063 63.7457C73.6042 64.2299 73.3221 64.8867 73.3221 65.5714C73.3221 66.2562 73.6042 66.9129 74.1063 67.3972C74.6085 67.8814 75.2895 68.1534 75.9997 68.1534C76.7098 68.1534 77.3909 67.8814 77.893 67.3972L81.333 64.0543V70.7143H65.333C64.6258 70.7143 63.9475 70.9852 63.4474 71.4675C62.9473 71.9497 62.6663 72.6037 62.6663 73.2857V91.2857H59.9997C59.2924 91.2857 58.6142 91.5566 58.1141 92.0389C57.614 92.5211 57.333 93.1752 57.333 93.8572V101.571C57.333 102.253 57.614 102.907 58.1141 103.39C58.6142 103.872 59.2924 104.143 59.9997 104.143H108C108.707 104.143 109.385 103.872 109.885 103.39C110.385 102.907 110.666 102.253 110.666 101.571V93.8572C110.666 93.1752 110.385 92.5211 109.885 92.0389C109.385 91.5566 108.707 91.2857 108 91.2857ZM67.9997 75.8572H81.333V83.5714C81.333 84.2534 81.614 84.9075 82.1141 85.3897C82.6142 85.872 83.2924 86.1429 83.9997 86.1429C84.7069 86.1429 85.3852 85.872 85.8853 85.3897C86.3854 84.9075 86.6663 84.2534 86.6663 83.5714V75.8572H99.9997V91.2857H67.9997V75.8572ZM105.333 99H62.6663V96.4286H105.333V99Z" fill="white"/>
</svg>
