<svg width="117" height="412" viewBox="0 0 117 412" fill="none" xmlns="http://www.w3.org/2000/svg">
<path d="M37.0942 275.38H79.55C80.3953 275.261 81.1692 274.841 81.7292 274.197C82.2893 273.553 82.5977 272.728 82.5977 271.875C82.5977 271.021 82.2893 270.197 81.7292 269.553C81.1692 268.909 80.3953 268.489 79.55 268.37L37.1079 268.439C36.2556 268.546 35.4718 268.96 34.9034 269.604C34.3351 270.248 34.0215 271.078 34.0215 271.937C34.0215 272.796 34.3351 273.625 34.9034 274.269C35.4718 274.913 36.2556 275.328 37.1079 275.435L37.0942 275.38Z" fill="#F7F8F8"/>
<path d="M37.0807 265.599H79.6051C80.4609 265.492 81.2481 265.076 81.8188 264.429C82.3895 263.782 82.7044 262.95 82.7044 262.087C82.7044 261.225 82.3895 260.392 81.8188 259.745C81.2481 259.099 80.4609 258.683 79.6051 258.575H75.0235L70.4418 249.275C70.4418 249.275 68.2333 246.285 67.0947 245.969C65.9562 245.654 52.8971 244.199 48.8504 245.969C47.2627 246.659 46.004 247.937 45.3387 249.536C44.1453 251.826 41.6487 256.504 40.5238 258.603H37.1081C36.2629 258.721 35.489 259.141 34.929 259.785C34.369 260.43 34.0605 261.254 34.0605 262.108C34.0605 262.961 34.369 263.786 34.929 264.43C35.489 265.074 36.2629 265.494 37.1081 265.613L37.0807 265.599Z" fill="#F7F8F8"/>
<path d="M37.1081 285.174H79.564C80.4092 285.055 81.1831 284.635 81.7431 283.991C82.3032 283.347 82.6116 282.522 82.6116 281.669C82.6116 280.815 82.3032 279.991 81.7431 279.347C81.1831 278.703 80.4092 278.283 79.564 278.164L37.1219 278.233C36.2766 278.351 35.5027 278.771 34.9427 279.415C34.3827 280.059 34.0742 280.884 34.0742 281.737C34.0742 282.591 34.3827 283.416 34.9427 284.06C35.5027 284.704 36.2766 285.124 37.1219 285.242L37.1081 285.174Z" fill="#F7F8F8"/>
<path d="M75.613 329.66C69.4007 316.055 64.3083 301.966 60.3866 287.533H53.9393C50.271 301.161 45.5754 314.492 39.8926 327.41C44.2612 329.519 47.6225 333.265 49.2479 337.835C52.1098 336.633 55.2258 336.162 58.3152 336.464C60.6432 336.634 62.9117 337.279 64.9819 338.357C67.9255 334.793 71.5368 331.839 75.613 329.66V329.66Z" stroke="white" stroke-miterlimit="10"/>
<path d="M58.563 411.142C71.596 411.113 84.2281 406.633 94.3682 398.445C104.508 390.258 111.548 378.853 114.323 366.119C117.098 353.384 115.441 340.084 109.626 328.42C103.812 316.756 94.1884 307.427 82.3492 301.978V290.812C82.3492 290.368 82.2614 289.929 82.0908 289.52C81.9202 289.11 81.6702 288.738 81.3552 288.426C81.0402 288.113 80.6665 287.866 80.2555 287.699C79.8446 287.532 79.4046 287.448 78.961 287.451H64.585C68.4204 301.446 73.3936 315.104 79.4548 328.288C80.9395 327.962 82.4809 327.997 83.9492 328.39C85.4175 328.784 86.7695 329.526 87.8911 330.552C88.8195 331.338 89.5682 332.314 90.0865 333.415C90.6049 334.515 90.8806 335.714 90.8953 336.93C90.834 337.655 90.5987 338.353 90.2094 338.967C89.8201 339.581 89.2883 340.092 88.6593 340.456C87.7618 341.046 86.7153 341.369 85.6414 341.389C82.4727 341.389 79.9623 338.522 78.7826 336.08C78.33 335.175 77.8636 334.256 77.4109 333.336C73.7817 335.191 70.5844 337.789 68.0281 340.963C68.8282 342.088 69.3373 343.394 69.5096 344.763C69.685 347.757 68.7027 350.704 66.7661 352.994C64.7496 355.312 62.1707 355.737 59.9073 354.05C59.3211 353.665 58.8226 353.16 58.4445 352.569C58.0663 351.978 57.8169 351.314 57.7125 350.621C57.301 347.493 60.0033 344.201 61.9786 341.773L62.2393 341.457C61.6594 341.201 61.0518 341.012 60.4285 340.895C57.5359 340.154 54.493 340.244 51.6493 341.155L50.4148 341.677C50.5831 342.497 50.7067 343.326 50.7851 344.16C51.0614 345.682 50.9204 347.251 50.377 348.701C49.8336 350.15 48.9081 351.425 47.6987 352.39C46.7406 353.159 45.5524 353.584 44.3242 353.597C43.7735 353.613 43.2257 353.514 42.7155 353.306C42.2053 353.098 41.7441 352.786 41.3612 352.39C40.7325 351.791 40.246 351.059 39.9375 350.247C39.6289 349.435 39.506 348.564 39.5779 347.699C39.8934 344.256 43.0621 341.622 44.4065 340.648C44.7905 340.374 45.2021 340.086 45.6136 339.825C44.5848 336.944 42.4037 332.678 38.3022 331.059C37.4654 332.829 36.6149 334.585 35.7507 336.272C35.6954 336.394 35.6264 336.509 35.5449 336.615C34.7905 337.754 32.8014 340.305 30.442 340.319C29.5272 340.303 28.6512 339.946 27.9865 339.317C25.682 337.301 25.5997 333.83 26.5188 331.347C27.6711 328.22 30.7438 326.354 34.7493 326.341C35.1746 326.341 35.5998 326.341 36.0113 326.341C41.5842 313.772 46.1974 300.799 49.8112 287.534H37.8495C37.4045 287.534 36.9639 287.621 36.5529 287.792C36.1418 287.962 35.7683 288.211 35.4536 288.526C35.139 288.841 34.8894 289.214 34.7191 289.625C34.5489 290.036 34.4612 290.477 34.4612 290.922V302.033C22.6166 307.502 12.998 316.856 7.20129 328.544C1.40459 340.232 -0.221679 353.55 2.59234 366.289C5.40635 379.029 12.4915 390.423 22.6721 398.581C32.8527 406.739 45.5168 411.172 58.563 411.142V411.142Z" stroke="white" stroke-miterlimit="10"/>
<path d="M59.1263 0H56.3828V251.388H59.1263V0Z" fill="white"/>
</svg>
