<svg width="64" height="64" viewBox="0 0 64 64" fill="none" xmlns="http://www.w3.org/2000/svg">
<g clip-path="url(#clip0_465_1644)">
<path d="M32 64C49.6731 64 64 49.6731 64 32C64 14.3269 49.6731 0 32 0C14.3269 0 0 14.3269 0 32C0 49.6731 14.3269 64 32 64Z" fill="#EF4C45"/>
<path d="M24.3836 19.6924C19.1011 19.6924 14.6827 23.9262 14.7688 29.2308C14.8377 33.4992 17.9885 37.6001 21.4617 41.0782C24.9325 44.5564 28.903 47.4684 31.0002 48.9995L31.6919 49.4622L32.3836 48.9995C34.4784 47.4708 38.5128 44.485 42.0008 40.9995C42.3454 40.6548 42.663 40.2782 43.0002 39.9238L42.0771 37.8462L41.922 37.4622C41.3756 38.0899 40.834 38.7028 40.231 39.3084C39.2857 40.2512 38.3356 41.1816 37.3854 42.0013C35.2562 43.8302 33.191 45.285 31.6919 46.3828C29.8482 45.029 27.2365 43.0524 24.615 40.6155C24.1596 40.1921 23.6796 39.7588 23.2291 39.3084C19.9356 36.0075 17.2796 32.2315 17.2304 29.2308C17.1664 25.3072 20.4254 22.1539 24.3836 22.1539C27.106 22.1539 29.4051 23.6185 30.6137 25.8462L31.6919 27.8475L32.77 25.8462C33.3739 24.7229 34.2726 23.7855 35.3695 23.1349C36.4664 22.4843 37.72 22.1452 38.9953 22.1539C39.5122 22.1539 40.3762 22.2942 40.8094 22.4247C43.9011 23.1976 46.151 25.8979 46.151 29.2308L48.0734 26.3065C46.818 22.4813 43.2513 19.6924 39.0002 19.6924C35.938 19.6924 33.442 21.3022 31.6919 23.5398C29.9442 21.2973 27.4457 19.6924 24.3836 19.6924ZM40.615 25.1865L36.6864 34.3508L34.311 30.7816L31.239 36.9232H27.0765V39.3847H32.7602L34.6137 35.6776L37.159 39.5004L40.615 31.4339L44.1005 39.557L47.01 34.9564L48.3122 39.3847H52.999V36.9232H50.1534L47.8371 29.0462L44.519 34.2942L40.615 25.1865V25.1865Z" fill="white"/>
</g>
<defs>
<clipPath id="clip0_465_1644">
<rect width="64" height="64" fill="white"/>
</clipPath>
</defs>
</svg>
