<svg width="425" height="419" viewBox="0 0 425 419" fill="none" xmlns="http://www.w3.org/2000/svg">
<path d="M423.75 209.5C423.75 324.497 329.187 417.75 212.5 417.75C95.813 417.75 1.25 324.497 1.25 209.5C1.25 94.5034 95.813 1.25 212.5 1.25C329.187 1.25 423.75 94.5034 423.75 209.5Z" stroke="#EFECEB" stroke-width="2.5"/>
<path d="M389.946 210C389.946 306.603 310.294 384.946 212 384.946C113.706 384.946 34.0538 306.603 34.0538 210C34.0538 113.397 113.706 35.0538 212 35.0538C310.294 35.0538 389.946 113.397 389.946 210Z" stroke="#EFECEB" stroke-width="2.10754"/>
<path d="M353.137 210.5C353.137 289.817 287.944 354.137 207.5 354.137C127.056 354.137 61.8634 289.817 61.8634 210.5C61.8634 131.183 127.056 66.8634 207.5 66.8634C287.944 66.8634 353.137 131.183 353.137 210.5Z" stroke="#EFECEB" stroke-width="1.72684"/>
</svg>
