<svg width="168" height="168" viewBox="0 0 168 168" fill="none" xmlns="http://www.w3.org/2000/svg">
<circle cx="84" cy="84" r="76" fill="#EF4531" stroke="white" stroke-width="16"/>
<g clip-path="url(#clip0_484_10508)">
<path d="M71.2415 107.186C71.2415 107.452 71.1361 107.706 70.9486 107.894C70.7611 108.081 70.5067 108.186 70.2415 108.186H67.9144C64.2018 108.186 60.7086 106.738 58.0785 104.108C55.4484 101.478 54 97.9849 54 94.2722C54 94.0069 54.1054 93.7526 54.2929 93.5651C54.4804 93.3775 54.7348 93.2722 55 93.2722C55.2652 93.2722 55.5196 93.3775 55.7071 93.5651C55.8946 93.7526 56 94.0069 56 94.2722C56 97.4508 57.2404 100.442 59.4926 102.694C61.745 104.946 64.7358 106.186 67.9143 106.186H70.2414C70.3727 106.186 70.5028 106.212 70.6241 106.262C70.7454 106.313 70.8557 106.386 70.9486 106.479C71.0414 106.572 71.1151 106.682 71.1654 106.804C71.2156 106.925 71.2415 107.055 71.2415 107.186V107.186ZM117 93.2722C116.735 93.2722 116.48 93.3775 116.293 93.5651C116.105 93.7526 116 94.0069 116 94.2722C116 97.4508 114.76 100.442 112.507 102.694C110.255 104.946 107.264 106.186 104.086 106.186H101.759C101.493 106.186 101.239 106.292 101.052 106.479C100.864 106.667 100.759 106.921 100.759 107.186C100.759 107.452 100.864 107.706 101.052 107.894C101.239 108.081 101.493 108.186 101.759 108.186H104.086C107.798 108.186 111.292 106.738 113.922 104.108C116.552 101.478 118 97.9849 118 94.2722C118 94.0069 117.895 93.7526 117.707 93.5651C117.52 93.3775 117.265 93.2722 117 93.2722V93.2722ZM79.5181 97.9098C81.275 99.6668 82.2425 101.999 82.2425 104.476V115C82.2425 115.265 82.1371 115.519 81.9496 115.707C81.7621 115.894 81.5077 116 81.2425 116H74.8649C74.5997 116 74.3453 115.894 74.1578 115.707C73.9702 115.519 73.8649 115.265 73.8649 115V104.476C73.8649 104.236 73.7689 104.008 73.5946 103.833C73.4204 103.659 73.192 103.563 72.9515 103.563H67.9144C65.4368 103.563 63.1045 102.596 61.3478 100.839C59.5908 99.0818 58.6231 96.7498 58.6231 94.2722V80.3385C58.6231 79.0703 59.1918 77.9332 60.0865 77.166C58.6915 76.267 57.765 74.701 57.765 72.9215C57.765 70.1385 60.0291 67.8745 62.8121 67.8745C65.5951 67.8745 67.8591 70.1385 67.8591 72.9215C67.8591 74.7025 66.931 76.2699 65.5339 77.1685C66.431 77.9357 67.001 79.0718 67.001 80.3385V80.795L69.5466 82.4377H78.871C80.5504 82.4377 81.9166 83.804 81.9166 85.4834C81.9166 87.1628 80.5503 88.529 78.871 88.529L68.6528 88.527C68.0716 88.5249 67.503 88.357 67.014 88.0429L67.001 88.0345V94.272C67.001 94.5127 67.097 94.741 67.2712 94.9153C67.4454 95.0894 67.6738 95.1853 67.9144 95.1853H72.9515C75.4291 95.1854 77.7611 96.153 79.5181 97.9098V97.9098ZM68.9572 84.4377L65.1026 81.9504C64.9879 81.8766 64.8597 81.8263 64.7254 81.8023C64.591 81.7783 64.4533 81.7811 64.3201 81.8107C64.0482 81.87 63.8159 82.0317 63.6656 82.2658C63.5154 82.4999 63.4651 82.7787 63.5245 83.0503C63.5533 83.1841 63.6083 83.3108 63.6864 83.4231C63.7645 83.5355 63.8641 83.6312 63.9795 83.7048L68.0964 86.3613C68.2646 86.4688 68.4599 86.5263 68.6595 86.5272L78.8713 86.5292C79.4475 86.5292 79.9166 86.06 79.9166 85.4835C79.9166 84.9069 79.4475 84.4378 78.871 84.4378H68.9572V84.4377ZM59.765 72.9215C59.765 74.6017 61.132 75.9687 62.8121 75.9687C64.4923 75.9687 65.8591 74.6017 65.8591 72.9215C65.8591 71.2414 64.4923 69.8745 62.8121 69.8745C61.132 69.8745 59.765 71.2414 59.765 72.9215V72.9215ZM80.2424 104.476C80.2424 102.533 79.4829 100.703 78.1038 99.324C76.7248 97.9449 74.8949 97.1854 72.9514 97.1854H67.9143C67.1396 97.1854 66.409 96.8814 65.8569 96.3297C65.3049 95.7773 65.0009 95.0467 65.0009 94.272V86.744L62.897 85.3864C62.2154 84.9489 61.7434 84.27 61.5704 83.4764C61.4842 83.0862 61.4762 82.6828 61.5469 82.2895C61.6177 81.8962 61.7657 81.5209 61.9825 81.1852C62.4214 80.5015 63.1001 80.0298 63.8939 79.8565C64.235 79.7815 64.5864 79.7659 64.9329 79.8102C64.6937 78.8634 63.8306 78.1592 62.8025 78.1592C61.6009 78.1592 60.6231 79.1368 60.6231 80.3385V94.2722C60.6231 96.2157 61.3826 98.0455 62.7618 99.4248C64.1408 100.804 65.9708 101.563 67.9143 101.563H72.9514C73.726 101.563 74.4568 101.867 75.0088 102.419C75.5608 102.971 75.8647 103.702 75.8647 104.477V114H80.2424V104.476V104.476ZM104.086 103.563H99.0486C98.808 103.563 98.5796 103.659 98.4054 103.833C98.2311 104.008 98.1353 104.236 98.1353 104.477V115C98.1353 115.265 98.0299 115.519 97.8424 115.707C97.6548 115.894 97.4005 116 97.1353 116H90.7576C90.4924 116 90.2381 115.894 90.0505 115.707C89.863 115.519 89.7576 115.265 89.7576 115V104.476C89.7576 101.999 90.7251 99.6667 92.482 97.9098C94.239 96.1529 96.571 95.1854 99.0486 95.1854H104.086C104.326 95.1854 104.555 95.0894 104.729 94.9152C104.903 94.741 104.999 94.5125 104.999 94.272V88.0345L104.988 88.0417C104.498 88.3565 103.929 88.5249 103.347 88.5272L93.1292 88.5292C91.4496 88.5292 90.0834 87.1628 90.0834 85.4835C90.0834 83.804 91.4498 82.4378 93.129 82.4378H102.453L104.999 80.7952V80.3387C104.999 79.0718 105.569 77.9357 106.466 77.1687C105.069 76.2702 104.141 74.7028 104.141 72.9217C104.141 70.1387 106.405 67.8747 109.188 67.8747C111.971 67.8747 114.235 70.1387 114.235 72.9217C114.235 74.701 113.309 76.2672 111.914 77.1662C112.808 77.9333 113.377 79.0705 113.377 80.3387V94.2723C113.377 96.75 112.409 99.0822 110.652 100.839C108.895 102.596 106.564 103.563 104.086 103.563ZM106.141 72.9215C106.141 74.6017 107.508 75.9687 109.188 75.9687C110.868 75.9687 112.235 74.6017 112.235 72.9215C112.235 71.2414 110.868 69.8745 109.188 69.8745C107.508 69.8745 106.141 71.2414 106.141 72.9215ZM108.018 83.706C108.134 83.6325 108.234 83.5366 108.313 83.424C108.391 83.3114 108.446 83.1843 108.475 83.0502C108.505 82.9166 108.508 82.7785 108.483 82.6438C108.459 82.5092 108.408 82.3807 108.334 82.2658C108.261 82.1504 108.165 82.0508 108.053 81.9726C107.94 81.8945 107.814 81.8394 107.68 81.8105C107.546 81.7811 107.408 81.7784 107.273 81.8026C107.139 81.8268 107.01 81.8775 106.895 81.9517L103.043 84.4377H93.129C92.5525 84.4377 92.0834 84.9068 92.0834 85.4834C92.0834 86.0599 92.5525 86.529 93.129 86.529L103.34 86.527C103.541 86.5261 103.737 86.4681 103.905 86.3599L108.018 83.706V83.706ZM99.0486 101.563H104.086C106.029 101.563 107.859 100.804 109.238 99.4247C110.617 98.0457 111.377 96.2157 111.377 94.2722V80.3385C111.377 79.1369 110.399 78.1592 109.197 78.1592C108.169 78.1592 107.306 78.8635 107.067 79.8103C107.413 79.7659 107.765 79.7816 108.106 79.8565C108.9 80.0298 109.579 80.5015 110.017 81.1853C110.234 81.521 110.382 81.8963 110.453 82.2896C110.524 82.6828 110.516 83.0862 110.43 83.4764C110.345 83.867 110.185 84.2371 109.957 84.5652C109.729 84.8933 109.438 85.1729 109.101 85.3878L106.999 86.744V94.2722C106.999 95.0465 106.695 95.7772 106.143 96.3294C105.591 96.8815 104.86 97.1855 104.086 97.1855H99.0485C97.105 97.1855 95.2751 97.945 93.8961 99.3242C92.517 100.703 91.7575 102.533 91.7575 104.477V114H96.1351V104.476C96.1351 103.702 96.4391 102.971 96.9909 102.419C97.5431 101.867 98.2738 101.563 99.0486 101.563V101.563ZM99.9001 92.8508C100.165 92.8508 100.42 92.7454 100.607 92.5579C100.795 92.3704 100.9 92.116 100.9 91.8508C100.9 91.5856 100.795 91.3312 100.607 91.1437C100.42 90.9561 100.165 90.8508 99.9001 90.8508H72.0998C71.8345 90.8508 71.5802 90.9561 71.3926 91.1437C71.2051 91.3312 71.0998 91.5856 71.0998 91.8508C71.0998 92.116 71.2051 92.3704 71.3926 92.5579C71.5802 92.7454 71.8345 92.8508 72.0998 92.8508H85V115C85 115.265 85.1054 115.519 85.2929 115.707C85.4804 115.894 85.7348 116 86 116C86.2652 116 86.5196 115.894 86.7071 115.707C86.8946 115.519 87 115.265 87 115V92.8508H99.9001V92.8508ZM72.5926 70.894C71.0331 68.4867 70.3694 65.6187 70.72 62.756C71.5404 56.0552 77.6595 51.2703 84.3606 52.0918C85.8609 52.2755 87.2864 52.7247 88.5849 53.4085C94.3556 53.441 99.3435 57.529 100.495 63.222C101.067 66.0485 100.629 68.9595 99.261 71.4809L101.267 75.5133C101.356 75.6914 101.389 75.8919 101.363 76.0891C101.337 76.2863 101.253 76.4713 101.122 76.6204C100.99 76.7696 100.817 76.8761 100.624 76.9263C100.432 76.9765 100.229 76.9682 100.041 76.9023L95.8571 75.4352C94.4067 76.5263 92.7126 77.2882 90.9234 77.6503C88.163 78.208 85.2947 77.7972 82.8019 76.487C82.328 76.4843 81.8546 76.4542 81.3843 76.3967C79.5727 76.1742 77.8335 75.5508 76.2932 74.5717L72.2362 76.3597C72.0542 76.4398 71.8524 76.4639 71.6566 76.4288C71.4608 76.3937 71.2799 76.301 71.1371 76.1626C70.9942 76.0242 70.8959 75.8463 70.8547 75.6517C70.8135 75.4571 70.8312 75.2546 70.9056 75.0702L72.5926 70.894V70.894ZM91.9188 55.9934C92.1272 56.2226 92.327 56.4594 92.5177 56.7034C94.532 59.2797 95.4224 62.4863 95.0249 65.7323C94.4431 70.4837 91.1956 74.2685 86.9671 75.7777C88.1497 75.9564 89.3544 75.9268 90.5267 75.69C92.182 75.355 93.7394 74.6117 95.0305 73.54C95.1634 73.4299 95.3225 73.3559 95.4924 73.3254C95.6623 73.2949 95.8372 73.3089 96.0001 73.3659L98.3802 74.2005L97.2325 71.8938C97.1575 71.7432 97.1218 71.5762 97.1285 71.4081C97.1353 71.2401 97.1844 71.0764 97.2713 70.9324C98.5958 68.7337 99.0446 66.1363 98.5351 63.6188C97.804 60.0054 95.2279 57.1677 91.9188 55.9934V55.9934ZM74.5338 70.1925C74.6315 70.3294 74.6931 70.4888 74.7129 70.6558C74.7327 70.8229 74.7101 70.9922 74.6471 71.1482L73.6821 73.537L75.99 72.5199C76.148 72.4503 76.3213 72.4227 76.4931 72.4399C76.6648 72.4572 76.8292 72.5186 76.9702 72.6182C78.3409 73.5862 79.9514 74.2063 81.6275 74.4117C82.048 74.4632 82.4664 74.4882 82.8799 74.4882C87.9775 74.4885 92.4049 70.6749 93.0399 65.4892C93.3724 62.7733 92.6275 60.0907 90.9424 57.9352C89.2571 55.7797 86.8334 54.4094 84.1175 54.0769C81.4021 53.745 78.719 54.4893 76.5635 56.1744C74.408 57.8597 73.0378 60.2834 72.7051 62.9993C72.3929 65.5488 73.0423 68.1034 74.5338 70.1925V70.1925ZM87.6276 65.4942C88.3179 65.4942 88.8776 64.9344 88.8776 64.2442C88.8776 63.5539 88.318 62.9942 87.6276 62.9942C86.9372 62.9942 86.3776 63.5538 86.3776 64.2442C86.3776 64.9345 86.9371 65.4942 87.6276 65.4942ZM82.8959 65.4942C83.5863 65.4942 84.1459 64.9344 84.1459 64.2442C84.1459 63.5539 83.5861 62.9942 82.8959 62.9942C82.2055 62.9942 81.6459 63.5538 81.6459 64.2442C81.6459 64.9345 82.2055 65.4942 82.8959 65.4942ZM78.1875 65.4942C78.8779 65.4942 79.4375 64.9344 79.4375 64.2442C79.4375 63.5539 78.8779 62.9942 78.1875 62.9942C77.4973 62.9942 76.9375 63.5539 76.9375 64.2442C76.9375 64.9344 77.4971 65.4942 78.1875 65.4942Z" fill="white"/>
</g>
<defs>
<clipPath id="clip0_484_10508">
<rect width="64" height="64" fill="white" transform="translate(54 52)"/>
</clipPath>
</defs>
</svg>
