<svg width="150" height="325" viewBox="0 0 150 325" fill="none" xmlns="http://www.w3.org/2000/svg">
<path d="M89.5071 228.458C84.2164 216.858 79.8768 204.848 76.5312 192.546H71.0486C67.9137 204.155 63.9083 215.51 59.0664 226.517C62.7877 228.322 65.6509 231.517 67.039 235.413C69.4766 234.384 72.1332 233.982 74.7661 234.244C76.7533 234.391 78.6901 234.94 80.4591 235.857C82.9637 232.824 86.0374 230.31 89.5071 228.458Z" fill="#F8BF39"/>
<path d="M56.681 182.2H92.92C93.6403 182.099 94.2998 181.741 94.7771 181.192C95.2543 180.643 95.5171 179.941 95.5171 179.213C95.5171 178.486 95.2543 177.783 94.7771 177.234C94.2998 176.685 93.6403 176.327 92.92 176.226H56.681C55.9547 176.318 55.2867 176.671 54.8023 177.22C54.318 177.769 54.0508 178.475 54.0508 179.207C54.0508 179.939 54.318 180.646 54.8023 181.195C55.2867 181.744 55.9547 182.097 56.681 182.188V182.2Z" fill="#F7F8F8"/>
<path d="M56.6695 173.865H92.85C93.5703 173.764 94.2298 173.406 94.707 172.857C95.1843 172.308 95.4471 171.605 95.4471 170.878C95.4471 170.15 95.1843 169.448 94.707 168.899C94.2298 168.35 93.5703 167.992 92.85 167.891H88.9806L85.0761 159.965C85.0761 159.965 83.194 157.417 82.2238 157.136C81.2535 156.856 70.1246 155.64 66.6761 157.136C65.3231 157.724 64.2505 158.814 63.6835 160.176C62.6664 162.116 60.5389 166.114 59.5803 167.903H56.6812C55.9609 168.004 55.3013 168.362 54.8241 168.91C54.3468 169.459 54.084 170.162 54.084 170.889C54.084 171.617 54.3468 172.32 54.8241 172.868C55.3013 173.417 55.9609 173.775 56.6812 173.876L56.6695 173.865Z" fill="#F7F8F8"/>
<path d="M56.6929 190.548L92.9318 190.489C93.6521 190.388 94.3117 190.03 94.7889 189.481C95.2662 188.933 95.529 188.23 95.529 187.502C95.529 186.775 95.2662 186.072 94.7889 185.523C94.3117 184.975 93.6521 184.617 92.9318 184.516H56.6929C55.9726 184.617 55.3131 184.975 54.8358 185.523C54.3586 186.072 54.0957 186.775 54.0957 187.502C54.0957 188.23 54.3586 188.933 54.8358 189.481C55.3131 190.03 55.9726 190.388 56.6929 190.489V190.548Z" fill="#F7F8F8"/>
<path d="M127.488 222.286C128.011 223.151 128.852 223.778 129.83 224.031C130.809 224.285 131.848 224.145 132.725 223.642L141.867 219.059C142.424 218.763 142.888 218.32 143.21 217.778C143.532 217.236 143.698 216.615 143.691 215.985C143.747 215.215 143.571 214.445 143.188 213.775C142.933 213.342 142.596 212.964 142.195 212.661C141.794 212.358 141.337 212.138 140.85 212.012C140.364 211.886 139.858 211.857 139.36 211.927C138.862 211.997 138.384 212.164 137.951 212.419L128.821 216.99C127.955 217.515 127.328 218.358 127.075 219.339C126.821 220.319 126.961 221.36 127.465 222.239C127.477 222.252 127.485 222.268 127.488 222.286Z" fill="#ED9E00"/>
<path d="M25.2129 222.286C24.6902 223.151 23.8495 223.778 22.8708 224.031C21.892 224.285 20.8529 224.145 19.9758 223.642L10.8343 219.059C10.2775 218.763 9.81291 218.32 9.49127 217.778C9.16962 217.236 9.00335 216.615 9.01062 215.985C8.95467 215.215 9.12968 214.445 9.51328 213.775C9.76786 213.342 10.1054 212.964 10.5064 212.661C10.9075 212.358 11.3643 212.138 11.8507 212.012C12.3371 211.886 12.8436 211.857 13.3411 211.927C13.8387 211.997 14.3176 212.164 14.7504 212.419L23.8803 216.99C24.7465 217.515 25.3732 218.358 25.6266 219.339C25.88 220.319 25.7399 221.36 25.2363 222.239C25.2242 222.252 25.2161 222.268 25.2129 222.286Z" fill="#ED9E00"/>
<path d="M4.94181 267.431L14.9368 265.327C15.5759 265.165 16.1591 264.832 16.6243 264.365C17.0895 263.898 17.4193 263.313 17.5787 262.673C17.7364 262.004 17.7364 261.308 17.5787 260.639C17.5732 260.596 17.5732 260.553 17.5787 260.51C17.4542 259.743 17.0617 259.045 16.471 258.54C15.8802 258.035 15.1295 257.755 14.3523 257.752C13.8656 257.66 13.366 257.66 12.8793 257.752L2.90776 259.984C-1.9202 261.13 0.137223 268.436 4.94181 267.431Z" fill="#ED9E00"/>
<path d="M132.14 261.026C132.027 261.475 132.009 261.942 132.086 262.398C132.163 262.854 132.333 263.289 132.587 263.676C132.841 264.063 133.172 264.393 133.56 264.645C133.948 264.897 134.384 265.066 134.84 265.141L144.812 267.374C145.788 267.625 146.824 267.485 147.698 266.982C148.572 266.48 149.214 265.655 149.488 264.685V264.556C149.737 263.58 149.595 262.546 149.093 261.673C148.591 260.8 147.768 260.157 146.799 259.88L136.804 257.788C136.284 257.673 135.745 257.667 135.222 257.771C134.699 257.874 134.203 258.084 133.765 258.388C133.327 258.692 132.957 259.083 132.677 259.537C132.397 259.991 132.215 260.498 132.14 261.026Z" fill="#ED9E00"/>
<path d="M26.6972 307.447L26.779 307.517C28.2636 308.686 30.8003 309.236 32.1914 307.517L38.5508 299.521C39.2475 298.793 39.6363 297.823 39.6363 296.815C39.6363 295.807 39.2475 294.838 38.5508 294.109L38.2703 293.864C37.5328 293.256 36.5946 292.947 35.6404 292.996C34.6862 293.046 33.7852 293.451 33.115 294.132C30.9874 296.786 28.8364 299.428 26.6972 302.082C25.458 303.496 24.967 306.021 26.6972 307.447Z" fill="#ED9E00"/>
<path d="M111.332 299.404L117.692 307.4C119.095 309.165 121.643 308.569 123.104 307.4C123.126 307.374 123.154 307.354 123.186 307.342C124.939 305.927 124.355 303.39 123.186 301.929L116.733 293.992C116.375 293.579 115.917 293.265 115.404 293.077C114.891 292.889 114.339 292.833 113.799 292.916C112.866 293.007 111.994 293.421 111.332 294.085C110.745 294.651 110.373 295.403 110.28 296.213C110.2 297.373 110.577 298.519 111.332 299.404Z" fill="#ED9E00"/>
<path d="M74.8831 324.537H74.9416C75.9526 324.535 76.9221 324.135 77.6414 323.424C78.3607 322.714 78.7723 321.749 78.7876 320.738C78.7876 317.336 78.7876 313.923 78.7876 310.521C78.7846 309.507 78.3837 308.535 77.6709 307.813C76.9582 307.092 75.9907 306.679 74.9767 306.663C74.0355 306.63 73.1193 306.971 72.4282 307.61C72.0014 307.949 71.6611 308.384 71.4354 308.88C71.2098 309.376 71.1054 309.918 71.1307 310.463C71.1307 313.865 71.1307 317.278 71.1307 320.68C71.1332 321.684 71.5262 322.648 72.2264 323.368C72.9266 324.088 73.8793 324.507 74.8831 324.537Z" fill="#ED9E00"/>
<path d="M74.9525 297.896C86.0601 297.873 96.8269 294.058 105.47 287.081C114.114 280.105 120.115 270.385 122.481 259.533C124.847 248.68 123.436 237.345 118.481 227.403C113.526 217.462 105.325 209.511 95.2346 204.867V195.398C95.2346 195.019 95.1599 194.645 95.0146 194.295C94.8694 193.945 94.6565 193.628 94.3882 193.36C94.1199 193.093 93.8015 192.882 93.4513 192.738C93.101 192.594 92.7258 192.521 92.3472 192.522H80.1312C83.3976 204.452 87.6237 216.098 92.768 227.347C94.0332 227.068 95.3469 227.098 96.5981 227.434C97.8494 227.77 99.0015 228.401 99.9574 229.276C100.75 229.942 101.389 230.771 101.831 231.708C102.273 232.644 102.507 233.665 102.517 234.7C102.466 235.319 102.266 235.916 101.934 236.441C101.603 236.966 101.149 237.404 100.612 237.716C99.8499 238.223 98.9557 238.495 98.0402 238.499C95.3398 238.499 93.2006 236.068 92.1952 233.987L91.0262 231.649C87.9328 233.228 85.208 235.443 83.0303 238.148C83.7104 239.103 84.1441 240.212 84.2928 241.375C84.4386 243.926 83.602 246.436 81.9548 248.389C80.2364 250.364 78.0386 250.727 76.1098 249.289C75.6067 248.96 75.1789 248.529 74.8545 248.023C74.5301 247.518 74.3165 246.949 74.2277 246.355C73.877 243.701 76.1799 240.884 77.8633 238.826C77.9436 238.742 78.0178 238.652 78.0854 238.558C77.5919 238.337 77.0739 238.176 76.5423 238.078C74.0812 237.447 71.4917 237.524 69.0724 238.3C68.71 238.441 68.3593 238.581 68.0086 238.745C68.1489 239.458 68.2658 240.171 68.336 240.86C68.5555 242.148 68.4263 243.472 67.9617 244.693C67.4971 245.914 66.7141 246.988 65.694 247.804C64.8833 248.471 63.8679 248.838 62.8183 248.845C62.349 248.858 61.8821 248.774 61.4474 248.596C61.0126 248.419 60.6196 248.153 60.2932 247.816C59.7603 247.304 59.3484 246.679 59.0875 245.987C58.8266 245.296 58.7233 244.555 58.7852 243.818C59.0541 240.884 61.7428 238.639 62.8884 237.809C63.2157 237.576 63.5664 237.33 63.9288 237.108C63.0404 234.653 61.1817 231.006 57.6864 229.638C56.9733 231.146 56.2485 232.631 55.512 234.08C55.4623 234.183 55.4036 234.28 55.3367 234.373C54.6937 235.343 52.9987 237.517 50.988 237.517C50.2102 237.506 49.4643 237.206 48.8955 236.675C46.9316 234.957 46.8614 231.999 47.6447 229.884C48.6383 227.218 51.2569 225.628 54.6587 225.617C55.0094 225.617 55.3718 225.617 55.7225 225.617C60.4786 214.908 64.4101 203.853 67.4826 192.546H57.2889C56.5231 192.546 55.7887 192.85 55.2472 193.391C54.7057 193.933 54.4015 194.667 54.4015 195.433V204.902C44.3194 209.571 36.1355 217.545 31.2059 227.503C26.2763 237.46 24.8971 248.803 27.2968 259.651C29.6965 270.5 35.7311 280.203 44.4005 287.152C53.0698 294.101 63.8534 297.88 74.9642 297.861L74.9525 297.896Z" fill="#F8BF39"/>
<path d="M76.0978 0H73.7598V159.066H76.0978V0Z" fill="white"/>
</svg>
