<svg width="64" height="64" viewBox="0 0 64 64" fill="none" xmlns="http://www.w3.org/2000/svg">
<path d="M32 64C49.6731 64 64 49.6731 64 32C64 14.327 49.6731 0 32 0C14.3269 0 0 14.327 0 32C0 49.6731 14.3269 64 32 64Z" fill="#AD6CFF"/>
<path fill-rule="evenodd" clip-rule="evenodd" d="M36.8367 13.3332C36.7781 13.3331 36.7199 13.3408 36.6633 13.3559L32.822 14.4092C32.8104 14.4111 32.7988 14.4134 32.7873 14.4159L25.09 16.5226C25.0053 16.5457 24.9261 16.5853 24.8568 16.6392C24.7874 16.693 24.7294 16.76 24.6861 16.8363C24.6427 16.9126 24.6149 16.9967 24.6041 17.0838C24.5933 17.1709 24.5999 17.2593 24.6233 17.3439L27.6153 28.2732L27.0553 28.4265H27.1473C27.0448 28.4265 26.9437 28.45 26.8518 28.4953C26.7598 28.5407 26.6796 28.6066 26.6173 28.688C26.555 28.7694 26.5123 28.864 26.4926 28.9646C26.4728 29.0652 26.4765 29.169 26.5033 29.2679L29.9233 41.7732C29.8527 41.7679 29.7887 41.7465 29.7167 41.7452C29.1296 41.7311 28.5444 41.8168 27.986 41.9985C25.9127 34.4999 22.5287 22.4546 20.6473 15.1706C20.609 15.0211 20.52 14.8896 20.3955 14.7984C20.271 14.7072 20.1187 14.662 19.9647 14.6706L15.8793 14.9026C15.7902 14.9049 15.7024 14.9252 15.6212 14.9621C15.54 14.999 15.467 15.0519 15.4066 15.1175C15.3462 15.1831 15.2996 15.2602 15.2695 15.3442C15.2394 15.4281 15.2265 15.5173 15.2315 15.6063C15.2365 15.6954 15.2593 15.7825 15.2986 15.8626C15.3379 15.9427 15.3929 16.0141 15.4602 16.0725C15.5276 16.131 15.606 16.1753 15.6908 16.2029C15.7756 16.2305 15.8651 16.2408 15.954 16.2332L19.5007 16.0332C20.4447 19.6679 21.7407 24.4132 23.0407 29.1319L21.342 32.0719C21.2988 32.1481 21.271 32.232 21.2602 32.319C21.2495 32.4059 21.256 32.4941 21.2793 32.5785L22.7927 38.1119C22.7972 38.2117 22.8241 38.3092 22.8713 38.3972L24.538 44.4932L24.6447 44.8812C24.3433 45.5079 24.1553 46.2025 24.1113 46.9345C23.9287 49.8852 26.1393 52.3905 29.0553 52.4932C31.9713 52.5959 34.486 50.2585 34.6687 47.3065C34.6833 46.9949 34.6708 46.6826 34.6313 46.3732L47.5713 42.8319L48.278 42.6385C48.4335 42.5956 48.5682 42.4978 48.6571 42.3632C48.746 42.2285 48.783 42.0663 48.7614 41.9064C48.7397 41.7465 48.6608 41.5999 48.5393 41.4938C48.4178 41.3877 48.262 41.3292 48.1007 41.3292C48.0406 41.3301 47.981 41.339 47.9233 41.3559L47.2193 41.5479L34.322 45.0785C34.0738 44.4273 33.6975 43.8325 33.2153 43.3292L45.254 40.0372H45.162C45.2643 40.0372 45.3653 40.0137 45.4571 39.9684C45.5489 39.9232 45.629 39.8574 45.6913 39.7762C45.7536 39.6949 45.7963 39.6005 45.8162 39.5001C45.8361 39.3997 45.8326 39.296 45.806 39.1972L41.934 25.0452C41.9162 24.9791 41.8883 24.9162 41.8513 24.8586C41.7904 24.765 41.7069 24.6883 41.6086 24.6354C41.5103 24.5825 41.4003 24.5552 41.2887 24.5559C41.2301 24.5558 41.1719 24.5634 41.1153 24.5786L40.474 24.7532L37.482 13.8239C37.4496 13.704 37.3844 13.5956 37.2937 13.5108C37.203 13.426 37.0904 13.3682 36.9687 13.3439C36.9248 13.335 36.8801 13.3305 36.8353 13.3306L36.8367 13.3332ZM36.374 14.8199L39.1873 25.1066L28.8967 27.9212L26.082 17.6346L28.6567 16.9319L30.2407 22.7266C30.2773 22.8674 30.3591 22.9924 30.4735 23.0824C30.5878 23.1725 30.7285 23.2226 30.8741 23.2252C31.0196 23.2277 31.162 23.1826 31.2794 23.0967C31.3969 23.0107 31.483 22.8887 31.5247 22.7492L32.418 20.5026L34.1887 21.8666C34.2371 21.9402 34.2997 22.0035 34.3727 22.0528C34.4458 22.1021 34.5279 22.1365 34.6144 22.1538C34.7008 22.1712 34.7898 22.1712 34.8763 22.154C34.9627 22.1367 35.0449 22.1025 35.118 22.0532C35.1962 22.0065 35.264 21.9443 35.3172 21.8704C35.3704 21.7965 35.4079 21.7125 35.4274 21.6236C35.4469 21.5346 35.4479 21.4426 35.4305 21.3532C35.413 21.2639 35.3775 21.179 35.326 21.1039L33.8007 15.5226L36.374 14.8199V14.8199ZM32.5167 15.8746L33.5607 19.7012L32.534 18.9092C32.4096 18.813 32.2551 18.7639 32.098 18.7706C31.9699 18.7763 31.8462 18.8188 31.7416 18.8931C31.6371 18.9673 31.5562 19.0702 31.5087 19.1892L31.0033 20.4559L29.9433 16.5772L32.5167 15.8746V15.8746ZM40.826 26.0412L44.346 38.9039L31.866 42.3145C31.7153 42.2372 31.558 42.1799 31.3993 42.1172L27.9647 29.5599L28.5647 29.3959C28.566 29.395 28.5673 29.3941 28.5687 29.3932L28.6087 29.3852L31.8233 28.5052L33.722 35.4452C33.7257 35.5949 33.7798 35.739 33.8755 35.8543C33.9711 35.9695 34.1028 36.0492 34.2493 36.0805C34.3957 36.1117 34.5485 36.0928 34.6829 36.0266C34.8172 35.9605 34.9254 35.851 34.99 35.7159C34.9956 35.7054 35.0009 35.6947 35.006 35.6839C35.0097 35.6755 35.0133 35.6671 35.0167 35.6585L35.0193 35.6559C35.0212 35.6497 35.023 35.6435 35.0247 35.6372L35.9713 33.3585L37.8393 34.8665C37.948 34.9555 38.082 35.0078 38.2222 35.0161C38.3624 35.0244 38.5016 34.9881 38.62 34.9126C38.7384 34.8371 38.83 34.7261 38.8816 34.5955C38.9331 34.4648 38.9422 34.3213 38.9073 34.1852C38.9073 34.1834 38.9073 34.1817 38.9073 34.1799C38.9048 34.1727 38.9021 34.1656 38.8993 34.1585L38.894 34.1425C38.8915 34.1336 38.8888 34.1247 38.886 34.1159L36.966 27.0985L40.1807 26.2186C40.1842 26.2177 40.1878 26.2168 40.1913 26.2159L40.826 26.0426V26.0412ZM35.6833 27.4505L37.0713 32.5305L36.118 31.7625C35.9959 31.6639 35.8429 31.6115 35.686 31.6145C35.5563 31.6168 35.43 31.6569 35.3227 31.7298C35.2155 31.8027 35.1318 31.9054 35.082 32.0252L34.5327 33.3519L33.11 28.1532L35.6833 27.4505ZM23.5367 30.9372L25.0247 36.3039L23.878 37.0279L22.638 32.4945L23.538 30.9372H23.5367ZM25.3967 37.6479C25.846 39.2652 26.3753 41.1799 26.7513 42.5412C26.338 42.7945 25.9727 43.1145 25.6393 43.4679L24.246 38.3719L25.3967 37.6479V37.6479ZM29.6367 43.0745C31.8167 43.1532 33.4727 45.0079 33.334 47.2572C33.1967 49.5065 31.3193 51.2385 29.1393 51.1612C26.9593 51.0839 25.2993 49.2279 25.438 46.9785C25.5767 44.7305 27.4567 42.9985 29.6367 43.0759V43.0745ZM29.5167 44.4532C28.8108 44.422 28.1213 44.671 27.5983 45.1461C27.0753 45.6211 26.7613 46.2836 26.7247 46.9892C26.6935 47.6952 26.9427 48.385 27.418 48.908C27.8933 49.4311 28.5562 49.7449 29.262 49.7812C29.9678 49.812 30.6572 49.5626 31.18 49.0873C31.7027 48.6121 32.0164 47.9494 32.0527 47.2439C32.0835 46.5383 31.8343 45.849 31.3593 45.3263C30.8843 44.8036 30.222 44.4898 29.5167 44.4532V44.4532ZM29.454 45.7865C29.6294 45.7935 29.8016 45.8353 29.9607 45.9095C30.1198 45.9838 30.2625 46.0889 30.3805 46.2188C30.4985 46.3488 30.5895 46.5009 30.6481 46.6664C30.7067 46.8318 30.7319 47.0073 30.722 47.1825C30.7145 47.3578 30.6723 47.5299 30.5978 47.6887C30.5233 47.8475 30.418 47.99 30.288 48.1078C30.158 48.2256 30.0059 48.3165 29.8405 48.3751C29.6752 48.4337 29.4998 48.4589 29.3247 48.4492C29.1491 48.442 28.9768 48.4001 28.8177 48.3257C28.6585 48.2514 28.5157 48.1461 28.3976 48.0161C28.2795 47.8861 28.1884 47.7339 28.1297 47.5683C28.0709 47.4028 28.0456 47.2272 28.0553 47.0519C28.0626 46.8763 28.1048 46.7039 28.1794 46.5448C28.254 46.3857 28.3596 46.243 28.4899 46.1252C28.6202 46.0073 28.7727 45.9165 28.9384 45.8581C29.1042 45.7997 29.2799 45.775 29.4553 45.7852L29.454 45.7865Z" fill="white"/>
</svg>
