<svg width="168" height="168" viewBox="0 0 168 168" fill="none" xmlns="http://www.w3.org/2000/svg">
<circle cx="84" cy="84" r="76" fill="#FE800C" stroke="white" stroke-width="16"/>
<path d="M81.333 108V104H104V83.7333C104 81.1556 103.444 78.6778 102.333 76.3C101.222 73.9222 99.733 71.8222 97.8663 70C95.9997 68.1778 93.8663 66.7222 91.4663 65.6333C89.0663 64.5444 86.5775 64 83.9997 64C81.4219 64 78.933 64.5444 76.533 65.6333C74.133 66.7222 71.9997 68.1778 70.133 70C68.2663 71.8222 66.7775 73.9222 65.6663 76.3C64.5552 78.6778 63.9997 81.1556 63.9997 83.7333V100H62.6663C61.1997 100 59.9441 99.4778 58.8997 98.4333C57.8552 97.3889 57.333 96.1333 57.333 94.6667V89.3333C57.333 88.3111 57.5775 87.4111 58.0663 86.6333C58.5552 85.8556 59.1997 85.2222 59.9997 84.7333L60.1997 81.2C60.5997 77.9556 61.5219 75.0222 62.9663 72.4C64.4108 69.7778 66.2108 67.5556 68.3663 65.7333C70.5219 63.9111 72.9441 62.5 75.633 61.5C78.3219 60.5 81.1108 60 83.9997 60C86.933 60 89.7441 60.5 92.433 61.5C95.1219 62.5 97.533 63.9222 99.6663 65.7667C101.8 67.6111 103.589 69.8333 105.033 72.4333C106.477 75.0333 107.4 77.9333 107.8 81.1333L108 84.6C108.8 85 109.444 85.5889 109.933 86.3667C110.422 87.1444 110.666 88 110.666 88.9333V95.0667C110.666 96.0444 110.422 96.9111 109.933 97.6667C109.444 98.4222 108.8 99 108 99.4V104C108 105.111 107.611 106.056 106.833 106.833C106.055 107.611 105.111 108 104 108H81.333ZM75.9997 88.6667C75.4663 88.6667 74.9997 88.4667 74.5997 88.0667C74.1997 87.6667 73.9997 87.1778 73.9997 86.6C73.9997 86.0667 74.1997 85.6111 74.5997 85.2333C74.9997 84.8556 75.4886 84.6667 76.0663 84.6667C76.5997 84.6667 77.0552 84.8556 77.433 85.2333C77.8108 85.6111 77.9997 86.0889 77.9997 86.6667C77.9997 87.2 77.8108 87.6667 77.433 88.0667C77.0552 88.4667 76.5775 88.6667 75.9997 88.6667ZM91.9997 88.6667C91.4663 88.6667 90.9997 88.4667 90.5997 88.0667C90.1997 87.6667 89.9997 87.1778 89.9997 86.6C89.9997 86.0667 90.1997 85.6111 90.5997 85.2333C90.9997 84.8556 91.4886 84.6667 92.0663 84.6667C92.5997 84.6667 93.0552 84.8556 93.433 85.2333C93.8108 85.6111 93.9997 86.0889 93.9997 86.6667C93.9997 87.2 93.8108 87.6667 93.433 88.0667C93.0552 88.4667 92.5775 88.6667 91.9997 88.6667ZM68.0663 85.2C67.8886 82.5778 68.2552 80.2 69.1663 78.0667C70.0775 75.9333 71.2997 74.1222 72.833 72.6333C74.3663 71.1444 76.133 70 78.133 69.2C80.133 68.4 82.133 68 84.133 68C88.1775 68 91.5775 69.2778 94.333 71.8333C97.0886 74.3889 98.7774 77.5778 99.3997 81.4C95.2219 81.3556 91.5441 80.2333 88.3663 78.0333C85.1886 75.8333 82.733 72.9778 80.9997 69.4667C80.2886 73.0667 78.7886 76.2556 76.4997 79.0333C74.2108 81.8111 71.3997 83.8667 68.0663 85.2Z" fill="white"/>
</svg>
